    0
SECTION
    2
HEADER
    9
$ANGBASE
   50
0.000000
    9
$ANGDIR
   70
0
    9
$AUNITS
   70
0
    9
$EXTMIN
   10
-0.100000
   20
0.000000
   30
0.000000
    9
$EXTMAX
   10
0.100000
   20
1.020000
   30
0.000000
    0
ENDSEC
    0
SECTION
    2
ENTITIES
    0
LINE
    8
0
   10
-0.040000
   20
0.000000
   30
0.000000
   11
-0.020000
   21
0.000000
   31
0.000000
    0
LINE
    8
0
   10
-0.040000
   20
0.050000
   30
0.000000
   11
-0.040000
   21
0.000000
   31
0.000000
    0
ARC
    8
0
   10
-0.090000
   20
1.010000
   30
0.000000
   40
0.010000
   50
180.000000
   51
270.000000
    0
ARC
    8
0
   10
0.084802
   20
0.082000
   30
0.000000
   40
0.002000
   50
269.993596
   51
78.692956
    0
LINE
    8
0
   10
0.031608
   20
0.094679
   30
0.000000
   11
0.085194
   21
0.083961
   31
0.000000
    0
ARC
    8
0
   10
-0.032000
   20
0.066640
   30
0.000000
   40
0.002000
   50
281.307190
   51
0.000000
    0
LINE
    8
0
   10
-0.085194
   20
0.053961
   30
0.000000
   11
-0.031608
   21
0.064679
   31
0.000000
    0
ARC
    8
0
   10
-0.084802
   20
0.052000
   30
0.000000
   40
0.002000
   50
101.307295
   51
270.006830
    0
LINE
    8
0
   10
-0.040000
   20
0.050000
   30
0.000000
   11
-0.084802
   21
0.050000
   31
0.000000
    0
LINE
    8
0
   10
-0.030000
   20
0.080000
   30
0.000000
   11
-0.030000
   21
0.066640
   31
0.000000
    0
ARC
    8
0
   10
-0.032000
   20
0.096640
   30
0.000000
   40
0.002000
   50
281.307190
   51
0.000000
    0
LINE
    8
0
   10
-0.085194
   20
0.083961
   30
0.000000
   11
-0.031608
   21
0.094679
   31
0.000000
    0
ARC
    8
0
   10
-0.084802
   20
0.082000
   30
0.000000
   40
0.002000
   50
101.307295
   51
270.006830
    0
LINE
    8
0
   10
-0.030000
   20
0.080000
   30
0.000000
   11
-0.084802
   21
0.080000
   31
0.000000
    0
LINE
    8
0
   10
-0.030000
   20
0.110000
   30
0.000000
   11
-0.030000
   21
0.096640
   31
0.000000
    0
ARC
    8
0
   10
-0.032000
   20
0.126640
   30
0.000000
   40
0.002000
   50
281.307232
   51
0.000000
    0
LINE
    8
0
   10
-0.085194
   20
0.113961
   30
0.000000
   11
-0.031608
   21
0.124679
   31
0.000000
    0
ARC
    8
0
   10
-0.084802
   20
0.112000
   30
0.000000
   40
0.002000
   50
101.307295
   51
270.006830
    0
LINE
    8
0
   10
-0.030000
   20
0.110000
   30
0.000000
   11
-0.084802
   21
0.110000
   31
0.000000
    0
LINE
    8
0
   10
-0.030000
   20
0.140000
   30
0.000000
   11
-0.030000
   21
0.126640
   31
0.000000
    0
ARC
    8
0
   10
-0.032000
   20
0.156640
   30
0.000000
   40
0.002000
   50
281.307232
   51
0.000000
    0
LINE
    8
0
   10
-0.085194
   20
0.143961
   30
0.000000
   11
-0.031608
   21
0.154679
   31
0.000000
    0
ARC
    8
0
   10
-0.084802
   20
0.142000
   30
0.000000
   40
0.002000
   50
101.307337
   51
270.006830
    0
LINE
    8
0
   10
-0.030000
   20
0.140000
   30
0.000000
   11
-0.084802
   21
0.140000
   31
0.000000
    0
LINE
    8
0
   10
-0.030000
   20
0.170000
   30
0.000000
   11
-0.030000
   21
0.156640
   31
0.000000
    0
ARC
    8
0
   10
-0.032000
   20
0.186640
   30
0.000000
   40
0.002000
   50
281.307232
   51
0.000000
    0
LINE
    8
0
   10
-0.085194
   20
0.173961
   30
0.000000
   11
-0.031608
   21
0.184679
   31
0.000000
    0
ARC
    8
0
   10
-0.084802
   20
0.172000
   30
0.000000
   40
0.002000
   50
101.307337
   51
270.006830
    0
LINE
    8
0
   10
-0.030000
   20
0.170000
   30
0.000000
   11
-0.084802
   21
0.170000
   31
0.000000
    0
LINE
    8
0
   10
-0.030000
   20
0.200000
   30
0.000000
   11
-0.030000
   21
0.186640
   31
0.000000
    0
ARC
    8
0
   10
-0.032000
   20
0.216640
   30
0.000000
   40
0.002000
   50
281.307232
   51
0.000000
    0
LINE
    8
0
   10
-0.085194
   20
0.203961
   30
0.000000
   11
-0.031608
   21
0.214679
   31
0.000000
    0
ARC
    8
0
   10
-0.084802
   20
0.202000
   30
0.000000
   40
0.002000
   50
101.307337
   51
270.006830
    0
LINE
    8
0
   10
-0.030000
   20
0.200000
   30
0.000000
   11
-0.084802
   21
0.200000
   31
0.000000
    0
LINE
    8
0
   10
-0.030000
   20
0.230000
   30
0.000000
   11
-0.030000
   21
0.216640
   31
0.000000
    0
ARC
    8
0
   10
-0.032000
   20
0.246640
   30
0.000000
   40
0.002000
   50
281.307232
   51
0.000000
    0
LINE
    8
0
   10
-0.085194
   20
0.233961
   30
0.000000
   11
-0.031608
   21
0.244679
   31
0.000000
    0
ARC
    8
0
   10
-0.084802
   20
0.232000
   30
0.000000
   40
0.002000
   50
101.307337
   51
270.006830
    0
LINE
    8
0
   10
-0.030000
   20
0.230000
   30
0.000000
   11
-0.084802
   21
0.230000
   31
0.000000
    0
LINE
    8
0
   10
-0.030000
   20
0.260000
   30
0.000000
   11
-0.030000
   21
0.246640
   31
0.000000
    0
ARC
    8
0
   10
-0.032000
   20
0.276640
   30
0.000000
   40
0.002000
   50
281.307232
   51
0.000000
    0
LINE
    8
0
   10
-0.085194
   20
0.263961
   30
0.000000
   11
-0.031608
   21
0.274679
   31
0.000000
    0
ARC
    8
0
   10
-0.084802
   20
0.262000
   30
0.000000
   40
0.002000
   50
101.307337
   51
270.006830
    0
LINE
    8
0
   10
-0.030000
   20
0.260000
   30
0.000000
   11
-0.084802
   21
0.260000
   31
0.000000
    0
LINE
    8
0
   10
-0.030000
   20
0.290000
   30
0.000000
   11
-0.030000
   21
0.276640
   31
0.000000
    0
ARC
    8
0
   10
-0.032000
   20
0.306640
   30
0.000000
   40
0.002000
   50
281.307232
   51
0.000000
    0
LINE
    8
0
   10
-0.085194
   20
0.293961
   30
0.000000
   11
-0.031608
   21
0.304679
   31
0.000000
    0
ARC
    8
0
   10
-0.084802
   20
0.292000
   30
0.000000
   40
0.002000
   50
101.307337
   51
270.006830
    0
LINE
    8
0
   10
-0.030000
   20
0.290000
   30
0.000000
   11
-0.084802
   21
0.290000
   31
0.000000
    0
LINE
    8
0
   10
-0.030000
   20
0.320000
   30
0.000000
   11
-0.030000
   21
0.306640
   31
0.000000
    0
ARC
    8
0
   10
-0.032000
   20
0.336640
   30
0.000000
   40
0.002000
   50
281.307232
   51
0.000000
    0
LINE
    8
0
   10
-0.085194
   20
0.323961
   30
0.000000
   11
-0.031608
   21
0.334679
   31
0.000000
    0
ARC
    8
0
   10
-0.084802
   20
0.322000
   30
0.000000
   40
0.002000
   50
101.307337
   51
270.006830
    0
LINE
    8
0
   10
-0.030000
   20
0.320000
   30
0.000000
   11
-0.084802
   21
0.320000
   31
0.000000
    0
LINE
    8
0
   10
-0.030000
   20
0.350000
   30
0.000000
   11
-0.030000
   21
0.336640
   31
0.000000
    0
ARC
    8
0
   10
-0.032000
   20
0.366640
   30
0.000000
   40
0.002000
   50
281.307232
   51
0.000000
    0
LINE
    8
0
   10
-0.085194
   20
0.353961
   30
0.000000
   11
-0.031608
   21
0.364679
   31
0.000000
    0
ARC
    8
0
   10
-0.084802
   20
0.352000
   30
0.000000
   40
0.002000
   50
101.307337
   51
270.006830
    0
LINE
    8
0
   10
-0.030000
   20
0.350000
   30
0.000000
   11
-0.084802
   21
0.350000
   31
0.000000
    0
LINE
    8
0
   10
-0.030000
   20
0.380000
   30
0.000000
   11
-0.030000
   21
0.366640
   31
0.000000
    0
ARC
    8
0
   10
-0.032000
   20
0.396640
   30
0.000000
   40
0.002000
   50
281.307232
   51
0.000000
    0
LINE
    8
0
   10
-0.085194
   20
0.383961
   30
0.000000
   11
-0.031608
   21
0.394679
   31
0.000000
    0
ARC
    8
0
   10
-0.084802
   20
0.382000
   30
0.000000
   40
0.002000
   50
101.307337
   51
270.006830
    0
LINE
    8
0
   10
-0.030000
   20
0.380000
   30
0.000000
   11
-0.084802
   21
0.380000
   31
0.000000
    0
LINE
    8
0
   10
-0.030000
   20
0.410000
   30
0.000000
   11
-0.030000
   21
0.396640
   31
0.000000
    0
ARC
    8
0
   10
-0.032000
   20
0.426640
   30
0.000000
   40
0.002000
   50
281.307232
   51
0.000000
    0
LINE
    8
0
   10
-0.085194
   20
0.413961
   30
0.000000
   11
-0.031608
   21
0.424679
   31
0.000000
    0
ARC
    8
0
   10
-0.084802
   20
0.412000
   30
0.000000
   40
0.002000
   50
101.307337
   51
270.006830
    0
LINE
    8
0
   10
-0.030000
   20
0.410000
   30
0.000000
   11
-0.084802
   21
0.410000
   31
0.000000
    0
LINE
    8
0
   10
-0.030000
   20
0.440000
   30
0.000000
   11
-0.030000
   21
0.426640
   31
0.000000
    0
ARC
    8
0
   10
-0.032000
   20
0.456640
   30
0.000000
   40
0.002000
   50
281.307232
   51
0.000000
    0
LINE
    8
0
   10
-0.085194
   20
0.443961
   30
0.000000
   11
-0.031608
   21
0.454679
   31
0.000000
    0
ARC
    8
0
   10
-0.084802
   20
0.442000
   30
0.000000
   40
0.002000
   50
101.307337
   51
270.006830
    0
LINE
    8
0
   10
-0.030000
   20
0.440000
   30
0.000000
   11
-0.084802
   21
0.440000
   31
0.000000
    0
LINE
    8
0
   10
-0.030000
   20
0.470000
   30
0.000000
   11
-0.030000
   21
0.456640
   31
0.000000
    0
ARC
    8
0
   10
-0.032000
   20
0.486640
   30
0.000000
   40
0.002000
   50
281.307232
   51
0.000000
    0
LINE
    8
0
   10
-0.085194
   20
0.473961
   30
0.000000
   11
-0.031608
   21
0.484679
   31
0.000000
    0
ARC
    8
0
   10
-0.084802
   20
0.472000
   30
0.000000
   40
0.002000
   50
101.307337
   51
270.006830
    0
LINE
    8
0
   10
-0.030000
   20
0.470000
   30
0.000000
   11
-0.084802
   21
0.470000
   31
0.000000
    0
LINE
    8
0
   10
-0.030000
   20
0.500000
   30
0.000000
   11
-0.030000
   21
0.486640
   31
0.000000
    0
ARC
    8
0
   10
-0.032000
   20
0.516640
   30
0.000000
   40
0.002000
   50
281.307232
   51
0.000000
    0
LINE
    8
0
   10
-0.085194
   20
0.503961
   30
0.000000
   11
-0.031608
   21
0.514679
   31
0.000000
    0
ARC
    8
0
   10
-0.084802
   20
0.502000
   30
0.000000
   40
0.002000
   50
101.307337
   51
270.006830
    0
LINE
    8
0
   10
-0.030000
   20
0.500000
   30
0.000000
   11
-0.084802
   21
0.500000
   31
0.000000
    0
LINE
    8
0
   10
-0.030000
   20
0.530000
   30
0.000000
   11
-0.030000
   21
0.516640
   31
0.000000
    0
ARC
    8
0
   10
-0.032000
   20
0.546640
   30
0.000000
   40
0.002000
   50
281.307232
   51
0.000000
    0
LINE
    8
0
   10
-0.085194
   20
0.533961
   30
0.000000
   11
-0.031608
   21
0.544679
   31
0.000000
    0
ARC
    8
0
   10
-0.084802
   20
0.532000
   30
0.000000
   40
0.002000
   50
101.307337
   51
270.006830
    0
LINE
    8
0
   10
-0.030000
   20
0.530000
   30
0.000000
   11
-0.084802
   21
0.530000
   31
0.000000
    0
LINE
    8
0
   10
-0.030000
   20
0.560000
   30
0.000000
   11
-0.030000
   21
0.546640
   31
0.000000
    0
ARC
    8
0
   10
-0.032000
   20
0.576640
   30
0.000000
   40
0.002000
   50
281.307232
   51
0.000000
    0
LINE
    8
0
   10
-0.085194
   20
0.563961
   30
0.000000
   11
-0.031608
   21
0.574679
   31
0.000000
    0
ARC
    8
0
   10
-0.084802
   20
0.562000
   30
0.000000
   40
0.002000
   50
101.307337
   51
270.006830
    0
LINE
    8
0
   10
-0.030000
   20
0.560000
   30
0.000000
   11
-0.084802
   21
0.560000
   31
0.000000
    0
LINE
    8
0
   10
-0.030000
   20
0.590000
   30
0.000000
   11
-0.030000
   21
0.576640
   31
0.000000
    0
ARC
    8
0
   10
-0.032000
   20
0.606640
   30
0.000000
   40
0.002000
   50
281.307232
   51
0.000000
    0
LINE
    8
0
   10
-0.085194
   20
0.593961
   30
0.000000
   11
-0.031608
   21
0.604679
   31
0.000000
    0
ARC
    8
0
   10
-0.084802
   20
0.592000
   30
0.000000
   40
0.002000
   50
101.307337
   51
270.006830
    0
LINE
    8
0
   10
-0.030000
   20
0.590000
   30
0.000000
   11
-0.084802
   21
0.590000
   31
0.000000
    0
LINE
    8
0
   10
-0.030000
   20
0.620000
   30
0.000000
   11
-0.030000
   21
0.606640
   31
0.000000
    0
ARC
    8
0
   10
-0.032000
   20
0.636640
   30
0.000000
   40
0.002000
   50
281.307232
   51
0.000000
    0
LINE
    8
0
   10
-0.085194
   20
0.623961
   30
0.000000
   11
-0.031608
   21
0.634679
   31
0.000000
    0
ARC
    8
0
   10
-0.084802
   20
0.622000
   30
0.000000
   40
0.002000
   50
101.307337
   51
270.006830
    0
LINE
    8
0
   10
-0.030000
   20
0.620000
   30
0.000000
   11
-0.084802
   21
0.620000
   31
0.000000
    0
LINE
    8
0
   10
-0.030000
   20
0.650000
   30
0.000000
   11
-0.030000
   21
0.636640
   31
0.000000
    0
ARC
    8
0
   10
-0.032000
   20
0.666640
   30
0.000000
   40
0.002000
   50
281.307232
   51
0.000000
    0
LINE
    8
0
   10
-0.085194
   20
0.653961
   30
0.000000
   11
-0.031608
   21
0.664679
   31
0.000000
    0
ARC
    8
0
   10
-0.084802
   20
0.652000
   30
0.000000
   40
0.002000
   50
101.307337
   51
270.006830
    0
LINE
    8
0
   10
-0.030000
   20
0.650000
   30
0.000000
   11
-0.084802
   21
0.650000
   31
0.000000
    0
LINE
    8
0
   10
-0.030000
   20
0.680000
   30
0.000000
   11
-0.030000
   21
0.666640
   31
0.000000
    0
ARC
    8
0
   10
-0.032000
   20
0.696640
   30
0.000000
   40
0.002000
   50
281.307232
   51
0.000000
    0
LINE
    8
0
   10
-0.085194
   20
0.683961
   30
0.000000
   11
-0.031608
   21
0.694679
   31
0.000000
    0
ARC
    8
0
   10
-0.084802
   20
0.682000
   30
0.000000
   40
0.002000
   50
101.307337
   51
270.006830
    0
LINE
    8
0
   10
-0.030000
   20
0.680000
   30
0.000000
   11
-0.084802
   21
0.680000
   31
0.000000
    0
LINE
    8
0
   10
-0.030000
   20
0.710000
   30
0.000000
   11
-0.030000
   21
0.696640
   31
0.000000
    0
ARC
    8
0
   10
-0.032000
   20
0.726640
   30
0.000000
   40
0.002000
   50
281.307232
   51
0.000000
    0
LINE
    8
0
   10
-0.085194
   20
0.713961
   30
0.000000
   11
-0.031608
   21
0.724679
   31
0.000000
    0
ARC
    8
0
   10
-0.084802
   20
0.712000
   30
0.000000
   40
0.002000
   50
101.307337
   51
270.006830
    0
LINE
    8
0
   10
-0.030000
   20
0.710000
   30
0.000000
   11
-0.084802
   21
0.710000
   31
0.000000
    0
LINE
    8
0
   10
-0.030000
   20
0.740000
   30
0.000000
   11
-0.030000
   21
0.726640
   31
0.000000
    0
ARC
    8
0
   10
0.032000
   20
0.096640
   30
0.000000
   40
0.002000
   50
180.004269
   51
258.697100
    0
LINE
    8
0
   10
-0.030000
   20
0.950000
   30
0.000000
   11
-0.030000
   21
0.936640
   31
0.000000
    0
LINE
    8
0
   10
0.030000
   20
0.066640
   30
0.000000
   11
0.030000
   21
0.080000
   31
0.000000
    0
LINE
    8
0
   10
0.084802
   20
0.050000
   30
0.000000
   11
0.040000
   21
0.050000
   31
0.000000
    0
ARC
    8
0
   10
0.084802
   20
0.052000
   30
0.000000
   40
0.002000
   50
269.993596
   51
78.692956
    0
LINE
    8
0
   10
0.020000
   20
0.000000
   30
0.000000
   11
0.040000
   21
0.000000
   31
0.000000
    0
LINE
    8
0
   10
-0.030000
   20
0.920000
   30
0.000000
   11
-0.084802
   21
0.920000
   31
0.000000
    0
ARC
    8
0
   10
-0.084802
   20
0.922000
   30
0.000000
   40
0.002000
   50
101.307086
   51
270.006404
    0
LINE
    8
0
   10
-0.085194
   20
0.923961
   30
0.000000
   11
-0.031608
   21
0.934679
   31
0.000000
    0
ARC
    8
0
   10
-0.032000
   20
0.936640
   30
0.000000
   40
0.002000
   50
281.303109
   51
359.996585
    0
LINE
    8
0
   10
-0.030000
   20
0.920000
   30
0.000000
   11
-0.030000
   21
0.906640
   31
0.000000
    0
LINE
    8
0
   10
-0.030000
   20
0.890000
   30
0.000000
   11
-0.084802
   21
0.890000
   31
0.000000
    0
ARC
    8
0
   10
-0.084802
   20
0.892000
   30
0.000000
   40
0.002000
   50
101.307086
   51
270.006404
    0
LINE
    8
0
   10
-0.085194
   20
0.893961
   30
0.000000
   11
-0.031608
   21
0.904679
   31
0.000000
    0
ARC
    8
0
   10
-0.032000
   20
0.906640
   30
0.000000
   40
0.002000
   50
281.303109
   51
359.996585
    0
LINE
    8
0
   10
-0.030000
   20
0.890000
   30
0.000000
   11
-0.030000
   21
0.876640
   31
0.000000
    0
LINE
    8
0
   10
-0.030000
   20
0.860000
   30
0.000000
   11
-0.084802
   21
0.860000
   31
0.000000
    0
ARC
    8
0
   10
-0.084802
   20
0.862000
   30
0.000000
   40
0.002000
   50
101.307086
   51
270.006404
    0
LINE
    8
0
   10
-0.085194
   20
0.863961
   30
0.000000
   11
-0.031608
   21
0.874679
   31
0.000000
    0
ARC
    8
0
   10
-0.032000
   20
0.876640
   30
0.000000
   40
0.002000
   50
281.303109
   51
359.996585
    0
LINE
    8
0
   10
-0.030000
   20
0.860000
   30
0.000000
   11
-0.030000
   21
0.846640
   31
0.000000
    0
LINE
    8
0
   10
-0.030000
   20
0.830000
   30
0.000000
   11
-0.084802
   21
0.830000
   31
0.000000
    0
ARC
    8
0
   10
-0.084802
   20
0.832000
   30
0.000000
   40
0.002000
   50
101.307086
   51
270.006404
    0
LINE
    8
0
   10
-0.085194
   20
0.833961
   30
0.000000
   11
-0.031608
   21
0.844679
   31
0.000000
    0
ARC
    8
0
   10
-0.032000
   20
0.846640
   30
0.000000
   40
0.002000
   50
281.303109
   51
359.996585
    0
LINE
    8
0
   10
-0.030000
   20
0.830000
   30
0.000000
   11
-0.030000
   21
0.816640
   31
0.000000
    0
LINE
    8
0
   10
-0.030000
   20
0.800000
   30
0.000000
   11
-0.084802
   21
0.800000
   31
0.000000
    0
ARC
    8
0
   10
-0.084802
   20
0.802000
   30
0.000000
   40
0.002000
   50
101.307086
   51
270.006404
    0
LINE
    8
0
   10
-0.085194
   20
0.803961
   30
0.000000
   11
-0.031608
   21
0.814679
   31
0.000000
    0
ARC
    8
0
   10
-0.032000
   20
0.816640
   30
0.000000
   40
0.002000
   50
281.303109
   51
359.996585
    0
LINE
    8
0
   10
-0.030000
   20
0.800000
   30
0.000000
   11
-0.030000
   21
0.786640
   31
0.000000
    0
LINE
    8
0
   10
-0.030000
   20
0.770000
   30
0.000000
   11
-0.084802
   21
0.770000
   31
0.000000
    0
ARC
    8
0
   10
-0.084802
   20
0.772000
   30
0.000000
   40
0.002000
   50
101.307086
   51
270.006404
    0
LINE
    8
0
   10
-0.085194
   20
0.773961
   30
0.000000
   11
-0.031608
   21
0.784679
   31
0.000000
    0
ARC
    8
0
   10
-0.032000
   20
0.786640
   30
0.000000
   40
0.002000
   50
281.303109
   51
359.996585
    0
LINE
    8
0
   10
-0.030000
   20
0.770000
   30
0.000000
   11
-0.030000
   21
0.756640
   31
0.000000
    0
LINE
    8
0
   10
-0.030000
   20
0.740000
   30
0.000000
   11
-0.084802
   21
0.740000
   31
0.000000
    0
ARC
    8
0
   10
-0.084802
   20
0.742000
   30
0.000000
   40
0.002000
   50
101.307086
   51
270.006404
    0
LINE
    8
0
   10
-0.085194
   20
0.743961
   30
0.000000
   11
-0.031608
   21
0.754679
   31
0.000000
    0
ARC
    8
0
   10
-0.032000
   20
0.756640
   30
0.000000
   40
0.002000
   50
281.303109
   51
359.996585
    0
LINE
    8
0
   10
0.031608
   20
0.064679
   30
0.000000
   11
0.085194
   21
0.053961
   31
0.000000
    0
ARC
    8
0
   10
-0.090000
   20
1.010000
   30
0.000000
   40
0.010000
   50
90.000000
   51
180.000000
    0
LINE
    8
0
   10
-0.090000
   20
1.020000
   30
0.000000
   11
0.090000
   21
1.020000
   31
0.000000
    0
LINE
    8
0
   10
-0.030000
   20
0.990000
   30
0.000000
   11
-0.030000
   21
0.950000
   31
0.000000
    0
ARC
    8
0
   10
0.032000
   20
0.066640
   30
0.000000
   40
0.002000
   50
180.004269
   51
258.697100
    0
LINE
    8
0
   10
-0.020000
   20
0.000000
   30
0.000000
   11
-0.020000
   21
0.990000
   31
0.000000
    0
LINE
    8
0
   10
-0.020000
   20
0.000000
   30
0.000000
   11
0.000000
   21
0.000000
   31
0.000000
    0
LINE
    8
0
   10
-0.020000
   20
0.990000
   30
0.000000
   11
0.020000
   21
0.990000
   31
0.000000
    0
LINE
    8
0
   10
-0.030000
   20
0.990000
   30
0.000000
   11
-0.020000
   21
0.990000
   31
0.000000
    0
ARC
    8
0
   10
0.090000
   20
1.010000
   30
0.000000
   40
0.010000
   50
270.000000
   51
0.000000
    0
ARC
    8
0
   10
-0.045000
   20
0.995000
   30
0.000000
   40
0.005000
   50
0.000000
   51
90.000000
    0
LINE
    8
0
   10
-0.045000
   20
1.000000
   30
0.000000
   11
-0.090000
   21
1.000000
   31
0.000000
    0
LINE
    8
0
   10
-0.040000
   20
0.995000
   30
0.000000
   11
-0.040000
   21
0.955000
   31
0.000000
    0
ARC
    8
0
   10
-0.035000
   20
0.955000
   30
0.000000
   40
0.005000
   50
180.000000
   51
270.000384
    0
LINE
    8
0
   10
-0.035000
   20
0.950000
   30
0.000000
   11
-0.030000
   21
0.950000
   31
0.000000
    0
LINE
    8
0
   10
0.040000
   20
0.000000
   30
0.000000
   11
0.040000
   21
0.050000
   31
0.000000
    0
LINE
    8
0
   10
0.030000
   20
0.950000
   30
0.000000
   11
0.035000
   21
0.950000
   31
0.000000
    0
ARC
    8
0
   10
0.035000
   20
0.955000
   30
0.000000
   40
0.005000
   50
269.999445
   51
0.000000
    0
LINE
    8
0
   10
0.040000
   20
0.955000
   30
0.000000
   11
0.040000
   21
0.995000
   31
0.000000
    0
LINE
    8
0
   10
0.090000
   20
1.000000
   30
0.000000
   11
0.045000
   21
1.000000
   31
0.000000
    0
ARC
    8
0
   10
0.045000
   20
0.995000
   30
0.000000
   40
0.005000
   50
90.000000
   51
180.000000
    0
LINE
    8
0
   10
0.020000
   20
0.990000
   30
0.000000
   11
0.030000
   21
0.990000
   31
0.000000
    0
LINE
    8
0
   10
0.000000
   20
0.000000
   30
0.000000
   11
0.020000
   21
0.000000
   31
0.000000
    0
LINE
    8
0
   10
0.020000
   20
0.990000
   30
0.000000
   11
0.020000
   21
0.000000
   31
0.000000
    0
LINE
    8
0
   10
0.030000
   20
0.950000
   30
0.000000
   11
0.030000
   21
0.990000
   31
0.000000
    0
ARC
    8
0
   10
0.090000
   20
1.010000
   30
0.000000
   40
0.010000
   50
359.999317
   51
89.999658
    0
ARC
    8
0
   10
0.032000
   20
0.756640
   30
0.000000
   40
0.002000
   50
180.005123
   51
258.697749
    0
LINE
    8
0
   10
0.031608
   20
0.754679
   30
0.000000
   11
0.085194
   21
0.743961
   31
0.000000
    0
ARC
    8
0
   10
0.084802
   20
0.742000
   30
0.000000
   40
0.002000
   50
269.993596
   51
78.692914
    0
LINE
    8
0
   10
0.084802
   20
0.740000
   30
0.000000
   11
0.030000
   21
0.740000
   31
0.000000
    0
LINE
    8
0
   10
0.030000
   20
0.756640
   30
0.000000
   11
0.030000
   21
0.770000
   31
0.000000
    0
ARC
    8
0
   10
0.032000
   20
0.786640
   30
0.000000
   40
0.002000
   50
180.003415
   51
258.697414
    0
LINE
    8
0
   10
0.031608
   20
0.784679
   30
0.000000
   11
0.085194
   21
0.773961
   31
0.000000
    0
ARC
    8
0
   10
0.084802
   20
0.772000
   30
0.000000
   40
0.002000
   50
269.993596
   51
78.692579
    0
LINE
    8
0
   10
0.084802
   20
0.770000
   30
0.000000
   11
0.030000
   21
0.770000
   31
0.000000
    0
LINE
    8
0
   10
0.030000
   20
0.786640
   30
0.000000
   11
0.030000
   21
0.800000
   31
0.000000
    0
ARC
    8
0
   10
0.032000
   20
0.816640
   30
0.000000
   40
0.002000
   50
180.003415
   51
258.697414
    0
LINE
    8
0
   10
0.031608
   20
0.814679
   30
0.000000
   11
0.085194
   21
0.803961
   31
0.000000
    0
ARC
    8
0
   10
0.084802
   20
0.802000
   30
0.000000
   40
0.002000
   50
269.993596
   51
78.692914
    0
LINE
    8
0
   10
0.084802
   20
0.800000
   30
0.000000
   11
0.030000
   21
0.800000
   31
0.000000
    0
LINE
    8
0
   10
0.030000
   20
0.816640
   30
0.000000
   11
0.030000
   21
0.830000
   31
0.000000
    0
ARC
    8
0
   10
0.032000
   20
0.846640
   30
0.000000
   40
0.002000
   50
180.005123
   51
258.697749
    0
LINE
    8
0
   10
0.031608
   20
0.844679
   30
0.000000
   11
0.085194
   21
0.833961
   31
0.000000
    0
ARC
    8
0
   10
0.084802
   20
0.832000
   30
0.000000
   40
0.002000
   50
269.993596
   51
78.692914
    0
LINE
    8
0
   10
0.084802
   20
0.830000
   30
0.000000
   11
0.030000
   21
0.830000
   31
0.000000
    0
LINE
    8
0
   10
0.030000
   20
0.846640
   30
0.000000
   11
0.030000
   21
0.860000
   31
0.000000
    0
ARC
    8
0
   10
0.032000
   20
0.876640
   30
0.000000
   40
0.002000
   50
180.005123
   51
258.697749
    0
LINE
    8
0
   10
0.031608
   20
0.874679
   30
0.000000
   11
0.085194
   21
0.863961
   31
0.000000
    0
ARC
    8
0
   10
0.084802
   20
0.862000
   30
0.000000
   40
0.002000
   50
269.993596
   51
78.692914
    0
LINE
    8
0
   10
0.084802
   20
0.860000
   30
0.000000
   11
0.030000
   21
0.860000
   31
0.000000
    0
LINE
    8
0
   10
0.030000
   20
0.876640
   30
0.000000
   11
0.030000
   21
0.890000
   31
0.000000
    0
ARC
    8
0
   10
0.032000
   20
0.906640
   30
0.000000
   40
0.002000
   50
180.003415
   51
258.697414
    0
LINE
    8
0
   10
0.031608
   20
0.904679
   30
0.000000
   11
0.085194
   21
0.893961
   31
0.000000
    0
ARC
    8
0
   10
0.084802
   20
0.892000
   30
0.000000
   40
0.002000
   50
269.993596
   51
78.692579
    0
LINE
    8
0
   10
0.084802
   20
0.890000
   30
0.000000
   11
0.030000
   21
0.890000
   31
0.000000
    0
LINE
    8
0
   10
0.030000
   20
0.906640
   30
0.000000
   11
0.030000
   21
0.920000
   31
0.000000
    0
ARC
    8
0
   10
0.032000
   20
0.936640
   30
0.000000
   40
0.002000
   50
180.003415
   51
258.697414
    0
LINE
    8
0
   10
0.031608
   20
0.934679
   30
0.000000
   11
0.085194
   21
0.923961
   31
0.000000
    0
ARC
    8
0
   10
0.084802
   20
0.922000
   30
0.000000
   40
0.002000
   50
269.993596
   51
78.692914
    0
LINE
    8
0
   10
0.084802
   20
0.920000
   30
0.000000
   11
0.030000
   21
0.920000
   31
0.000000
    0
LINE
    8
0
   10
0.030000
   20
0.936640
   30
0.000000
   11
0.030000
   21
0.950000
   31
0.000000
    0
LINE
    8
0
   10
0.030000
   20
0.726640
   30
0.000000
   11
0.030000
   21
0.740000
   31
0.000000
    0
LINE
    8
0
   10
0.084802
   20
0.710000
   30
0.000000
   11
0.030000
   21
0.710000
   31
0.000000
    0
ARC
    8
0
   10
0.084802
   20
0.712000
   30
0.000000
   40
0.002000
   50
269.993383
   51
78.693123
    0
LINE
    8
0
   10
0.031608
   20
0.724679
   30
0.000000
   11
0.085194
   21
0.713961
   31
0.000000
    0
ARC
    8
0
   10
0.032000
   20
0.726640
   30
0.000000
   40
0.002000
   50
180.005123
   51
258.697331
    0
LINE
    8
0
   10
0.030000
   20
0.696640
   30
0.000000
   11
0.030000
   21
0.710000
   31
0.000000
    0
LINE
    8
0
   10
0.084802
   20
0.680000
   30
0.000000
   11
0.030000
   21
0.680000
   31
0.000000
    0
ARC
    8
0
   10
0.084802
   20
0.682000
   30
0.000000
   40
0.002000
   50
269.993596
   51
78.692914
    0
LINE
    8
0
   10
0.031608
   20
0.694679
   30
0.000000
   11
0.085194
   21
0.683961
   31
0.000000
    0
ARC
    8
0
   10
0.032000
   20
0.696640
   30
0.000000
   40
0.002000
   50
180.003415
   51
258.696996
    0
LINE
    8
0
   10
0.030000
   20
0.666640
   30
0.000000
   11
0.030000
   21
0.680000
   31
0.000000
    0
LINE
    8
0
   10
0.084802
   20
0.650000
   30
0.000000
   11
0.030000
   21
0.650000
   31
0.000000
    0
ARC
    8
0
   10
0.084802
   20
0.652000
   30
0.000000
   40
0.002000
   50
269.993383
   51
78.692789
    0
LINE
    8
0
   10
0.031608
   20
0.664679
   30
0.000000
   11
0.085194
   21
0.653961
   31
0.000000
    0
ARC
    8
0
   10
0.032000
   20
0.666640
   30
0.000000
   40
0.002000
   50
180.003415
   51
258.696996
    0
LINE
    8
0
   10
0.030000
   20
0.636640
   30
0.000000
   11
0.030000
   21
0.650000
   31
0.000000
    0
LINE
    8
0
   10
0.084802
   20
0.620000
   30
0.000000
   11
0.030000
   21
0.620000
   31
0.000000
    0
ARC
    8
0
   10
0.084802
   20
0.622000
   30
0.000000
   40
0.002000
   50
269.993596
   51
78.692914
    0
LINE
    8
0
   10
0.031608
   20
0.634679
   30
0.000000
   11
0.085194
   21
0.623961
   31
0.000000
    0
ARC
    8
0
   10
0.032000
   20
0.636640
   30
0.000000
   40
0.002000
   50
180.005123
   51
258.697331
    0
LINE
    8
0
   10
0.030000
   20
0.606640
   30
0.000000
   11
0.030000
   21
0.620000
   31
0.000000
    0
LINE
    8
0
   10
0.084802
   20
0.590000
   30
0.000000
   11
0.030000
   21
0.590000
   31
0.000000
    0
ARC
    8
0
   10
0.084802
   20
0.592000
   30
0.000000
   40
0.002000
   50
269.993383
   51
78.693123
    0
LINE
    8
0
   10
0.031608
   20
0.604679
   30
0.000000
   11
0.085194
   21
0.593961
   31
0.000000
    0
ARC
    8
0
   10
0.032000
   20
0.606640
   30
0.000000
   40
0.002000
   50
180.005123
   51
258.697331
    0
LINE
    8
0
   10
0.030000
   20
0.576640
   30
0.000000
   11
0.030000
   21
0.590000
   31
0.000000
    0
LINE
    8
0
   10
0.084802
   20
0.560000
   30
0.000000
   11
0.030000
   21
0.560000
   31
0.000000
    0
ARC
    8
0
   10
0.084802
   20
0.562000
   30
0.000000
   40
0.002000
   50
269.993596
   51
78.692914
    0
LINE
    8
0
   10
0.031608
   20
0.574679
   30
0.000000
   11
0.085194
   21
0.563961
   31
0.000000
    0
ARC
    8
0
   10
0.032000
   20
0.576640
   30
0.000000
   40
0.002000
   50
180.003415
   51
258.696996
    0
LINE
    8
0
   10
0.030000
   20
0.546640
   30
0.000000
   11
0.030000
   21
0.560000
   31
0.000000
    0
LINE
    8
0
   10
0.084802
   20
0.530000
   30
0.000000
   11
0.030000
   21
0.530000
   31
0.000000
    0
ARC
    8
0
   10
0.084802
   20
0.532000
   30
0.000000
   40
0.002000
   50
269.993383
   51
78.692789
    0
LINE
    8
0
   10
0.031608
   20
0.544679
   30
0.000000
   11
0.085194
   21
0.533961
   31
0.000000
    0
ARC
    8
0
   10
0.032000
   20
0.546640
   30
0.000000
   40
0.002000
   50
180.003415
   51
258.696996
    0
LINE
    8
0
   10
0.030000
   20
0.516640
   30
0.000000
   11
0.030000
   21
0.530000
   31
0.000000
    0
LINE
    8
0
   10
0.084802
   20
0.500000
   30
0.000000
   11
0.030000
   21
0.500000
   31
0.000000
    0
ARC
    8
0
   10
0.084802
   20
0.502000
   30
0.000000
   40
0.002000
   50
269.993596
   51
78.692914
    0
LINE
    8
0
   10
0.031608
   20
0.514679
   30
0.000000
   11
0.085194
   21
0.503961
   31
0.000000
    0
ARC
    8
0
   10
0.032000
   20
0.516640
   30
0.000000
   40
0.002000
   50
180.005123
   51
258.697331
    0
LINE
    8
0
   10
0.030000
   20
0.486640
   30
0.000000
   11
0.030000
   21
0.500000
   31
0.000000
    0
LINE
    8
0
   10
0.084802
   20
0.470000
   30
0.000000
   11
0.030000
   21
0.470000
   31
0.000000
    0
ARC
    8
0
   10
0.084802
   20
0.472000
   30
0.000000
   40
0.002000
   50
269.993596
   51
78.692914
    0
LINE
    8
0
   10
0.031608
   20
0.484679
   30
0.000000
   11
0.085194
   21
0.473961
   31
0.000000
    0
ARC
    8
0
   10
0.032000
   20
0.486640
   30
0.000000
   40
0.002000
   50
180.004269
   51
258.697163
    0
LINE
    8
0
   10
0.030000
   20
0.456640
   30
0.000000
   11
0.030000
   21
0.470000
   31
0.000000
    0
LINE
    8
0
   10
0.084802
   20
0.440000
   30
0.000000
   11
0.030000
   21
0.440000
   31
0.000000
    0
ARC
    8
0
   10
0.084802
   20
0.442000
   30
0.000000
   40
0.002000
   50
269.993596
   51
78.693082
    0
LINE
    8
0
   10
0.031608
   20
0.454679
   30
0.000000
   11
0.085194
   21
0.443961
   31
0.000000
    0
ARC
    8
0
   10
0.032000
   20
0.456640
   30
0.000000
   40
0.002000
   50
180.004269
   51
258.697163
    0
LINE
    8
0
   10
0.030000
   20
0.426640
   30
0.000000
   11
0.030000
   21
0.440000
   31
0.000000
    0
LINE
    8
0
   10
0.084802
   20
0.410000
   30
0.000000
   11
0.030000
   21
0.410000
   31
0.000000
    0
ARC
    8
0
   10
0.084802
   20
0.412000
   30
0.000000
   40
0.002000
   50
269.993596
   51
78.692914
    0
LINE
    8
0
   10
0.031608
   20
0.424679
   30
0.000000
   11
0.085194
   21
0.413961
   31
0.000000
    0
ARC
    8
0
   10
0.032000
   20
0.426640
   30
0.000000
   40
0.002000
   50
180.004269
   51
258.697163
    0
LINE
    8
0
   10
0.030000
   20
0.396640
   30
0.000000
   11
0.030000
   21
0.410000
   31
0.000000
    0
LINE
    8
0
   10
0.084802
   20
0.380000
   30
0.000000
   11
0.030000
   21
0.380000
   31
0.000000
    0
ARC
    8
0
   10
0.084802
   20
0.382000
   30
0.000000
   40
0.002000
   50
269.993596
   51
78.693082
    0
LINE
    8
0
   10
0.031608
   20
0.394679
   30
0.000000
   11
0.085194
   21
0.383961
   31
0.000000
    0
ARC
    8
0
   10
0.032000
   20
0.396640
   30
0.000000
   40
0.002000
   50
180.004269
   51
258.697163
    0
LINE
    8
0
   10
0.030000
   20
0.366640
   30
0.000000
   11
0.030000
   21
0.380000
   31
0.000000
    0
LINE
    8
0
   10
0.084802
   20
0.350000
   30
0.000000
   11
0.030000
   21
0.350000
   31
0.000000
    0
ARC
    8
0
   10
0.084802
   20
0.352000
   30
0.000000
   40
0.002000
   50
269.993596
   51
78.692914
    0
LINE
    8
0
   10
0.031608
   20
0.364679
   30
0.000000
   11
0.085194
   21
0.353961
   31
0.000000
    0
ARC
    8
0
   10
0.032000
   20
0.366640
   30
0.000000
   40
0.002000
   50
180.004269
   51
258.697163
    0
LINE
    8
0
   10
0.030000
   20
0.336640
   30
0.000000
   11
0.030000
   21
0.350000
   31
0.000000
    0
LINE
    8
0
   10
0.084802
   20
0.320000
   30
0.000000
   11
0.030000
   21
0.320000
   31
0.000000
    0
ARC
    8
0
   10
0.084802
   20
0.322000
   30
0.000000
   40
0.002000
   50
269.993596
   51
78.693082
    0
LINE
    8
0
   10
0.031608
   20
0.334679
   30
0.000000
   11
0.085194
   21
0.323961
   31
0.000000
    0
ARC
    8
0
   10
0.032000
   20
0.336640
   30
0.000000
   40
0.002000
   50
180.004269
   51
258.697163
    0
LINE
    8
0
   10
0.030000
   20
0.306640
   30
0.000000
   11
0.030000
   21
0.320000
   31
0.000000
    0
LINE
    8
0
   10
0.084802
   20
0.290000
   30
0.000000
   11
0.030000
   21
0.290000
   31
0.000000
    0
ARC
    8
0
   10
0.084802
   20
0.292000
   30
0.000000
   40
0.002000
   50
269.993596
   51
78.692914
    0
LINE
    8
0
   10
0.031608
   20
0.304679
   30
0.000000
   11
0.085194
   21
0.293961
   31
0.000000
    0
ARC
    8
0
   10
0.032000
   20
0.306640
   30
0.000000
   40
0.002000
   50
180.004269
   51
258.697163
    0
LINE
    8
0
   10
0.030000
   20
0.276640
   30
0.000000
   11
0.030000
   21
0.290000
   31
0.000000
    0
LINE
    8
0
   10
0.084802
   20
0.260000
   30
0.000000
   11
0.030000
   21
0.260000
   31
0.000000
    0
ARC
    8
0
   10
0.084802
   20
0.262000
   30
0.000000
   40
0.002000
   50
269.993596
   51
78.693082
    0
LINE
    8
0
   10
0.031608
   20
0.274679
   30
0.000000
   11
0.085194
   21
0.263961
   31
0.000000
    0
ARC
    8
0
   10
0.032000
   20
0.276640
   30
0.000000
   40
0.002000
   50
180.004269
   51
258.697163
    0
LINE
    8
0
   10
0.030000
   20
0.246640
   30
0.000000
   11
0.030000
   21
0.260000
   31
0.000000
    0
LINE
    8
0
   10
0.084802
   20
0.230000
   30
0.000000
   11
0.030000
   21
0.230000
   31
0.000000
    0
ARC
    8
0
   10
0.084802
   20
0.232000
   30
0.000000
   40
0.002000
   50
269.993596
   51
78.692998
    0
LINE
    8
0
   10
0.031608
   20
0.244679
   30
0.000000
   11
0.085194
   21
0.233961
   31
0.000000
    0
ARC
    8
0
   10
0.032000
   20
0.246640
   30
0.000000
   40
0.002000
   50
180.004269
   51
258.697163
    0
LINE
    8
0
   10
0.030000
   20
0.216640
   30
0.000000
   11
0.030000
   21
0.230000
   31
0.000000
    0
LINE
    8
0
   10
0.084802
   20
0.200000
   30
0.000000
   11
0.030000
   21
0.200000
   31
0.000000
    0
ARC
    8
0
   10
0.084802
   20
0.202000
   30
0.000000
   40
0.002000
   50
269.993596
   51
78.692998
    0
LINE
    8
0
   10
0.031608
   20
0.214679
   30
0.000000
   11
0.085194
   21
0.203961
   31
0.000000
    0
ARC
    8
0
   10
0.032000
   20
0.216640
   30
0.000000
   40
0.002000
   50
180.004269
   51
258.697163
    0
LINE
    8
0
   10
0.030000
   20
0.186640
   30
0.000000
   11
0.030000
   21
0.200000
   31
0.000000
    0
LINE
    8
0
   10
0.084802
   20
0.170000
   30
0.000000
   11
0.030000
   21
0.170000
   31
0.000000
    0
ARC
    8
0
   10
0.084802
   20
0.172000
   30
0.000000
   40
0.002000
   50
269.993596
   51
78.692998
    0
LINE
    8
0
   10
0.031608
   20
0.184679
   30
0.000000
   11
0.085194
   21
0.173961
   31
0.000000
    0
ARC
    8
0
   10
0.032000
   20
0.186640
   30
0.000000
   40
0.002000
   50
180.004269
   51
258.697163
    0
LINE
    8
0
   10
0.030000
   20
0.156640
   30
0.000000
   11
0.030000
   21
0.170000
   31
0.000000
    0
LINE
    8
0
   10
0.084802
   20
0.140000
   30
0.000000
   11
0.030000
   21
0.140000
   31
0.000000
    0
ARC
    8
0
   10
0.084802
   20
0.142000
   30
0.000000
   40
0.002000
   50
269.993596
   51
78.692998
    0
LINE
    8
0
   10
0.031608
   20
0.154679
   30
0.000000
   11
0.085194
   21
0.143961
   31
0.000000
    0
ARC
    8
0
   10
0.032000
   20
0.156640
   30
0.000000
   40
0.002000
   50
180.004269
   51
258.697163
    0
LINE
    8
0
   10
0.030000
   20
0.126640
   30
0.000000
   11
0.030000
   21
0.140000
   31
0.000000
    0
LINE
    8
0
   10
0.084802
   20
0.110000
   30
0.000000
   11
0.030000
   21
0.110000
   31
0.000000
    0
ARC
    8
0
   10
0.084802
   20
0.112000
   30
0.000000
   40
0.002000
   50
269.993596
   51
78.692956
    0
LINE
    8
0
   10
0.031608
   20
0.124679
   30
0.000000
   11
0.085194
   21
0.113961
   31
0.000000
    0
ARC
    8
0
   10
0.032000
   20
0.126640
   30
0.000000
   40
0.002000
   50
180.004269
   51
258.697163
    0
LINE
    8
0
   10
0.030000
   20
0.096640
   30
0.000000
   11
0.030000
   21
0.110000
   31
0.000000
    0
LINE
    8
0
   10
0.084802
   20
0.080000
   30
0.000000
   11
0.030000
   21
0.080000
   31
0.000000
    0
ENDSEC
    0
EOF
